# xmcd CD Database Entry
#
# Track frame offsets:
# 150
# 22728
# 37430
# 52745
# 74455
# 90725
# 111323
# 125573
# 140185
# 167110
#
# Disc length: 2419 seconds
#
# Revision: 1
# Processed by: cddbd v1.4PL0 Copyright (c) Steve Scherf et al.
# Submitted via: tcd 2.0b
#
DISCID=9109710a
DTITLE=Robert Køes»an and Druhá tráva - Druhá tráva
DYEAR=1900
DGENRE=
TTITLE0=Zá¹»
TTITLE1=©panìlský nebe
TTITLE2=Je¹tì jedno kafe (One More Cup Of Coffee)
TTITLE3=Vra» se
TTITLE4=Záti¹í s buvoly
TTITLE5=Smuteèní mar¹e
TTITLE6=Praha bolestivosti
TTITLE7=V nevysokých horách
TTITLE8=Ne¾ zazvoní hrana
TTITLE9=Letní romance
EXTD=
EXTT0=
EXTT1=
EXTT2=
EXTT3=
EXTT4=
EXTT5=
EXTT6=
EXTT7=
EXTT8=
EXTT9=
PLAYORDER=
